<?xml version="1.0" encoding="utf-8"?>
<!-- Generator: Adobe Illustrator 16.0.0, SVG Export Plug-In . SVG Version: 6.00 Build 0)  -->
<!DOCTYPE svg PUBLIC "-//W3C//DTD SVG 1.1//EN" "http://www.w3.org/Graphics/SVG/1.1/DTD/svg11.dtd">
<svg version="1.1" id="Layer_1" xmlns="http://www.w3.org/2000/svg" xmlns:xlink="http://www.w3.org/1999/xlink" x="0px" y="0px"
	 width="612px" height="792px" viewBox="0 0 612 792" enable-background="new 0 0 612 792" xml:space="preserve">
<path fill="#E93726" d="M460.457,486.343c0-8.743,2.914-14.571,8.743-20.399L547.886,396l-75.771-69.943
	c-11.657-11.657-11.657-26.229-2.914-37.886c11.657-11.657,26.229-11.657,37.886-2.914l99.085,90.343
	c2.915,5.829,5.829,11.657,5.829,20.4l0,0c0,8.743-2.914,14.571-8.743,20.4l-99.085,90.343
	c-11.657,11.657-26.229,8.742-37.886-2.915C463.371,498,460.457,492.172,460.457,486.343z"/>
<path fill="#E93726" d="M20.4,396c0-14.571,11.657-26.229,26.229-26.229h498.343c14.571,0,26.229,11.657,26.229,26.229
	s-11.657,26.229-26.229,26.229H46.628C32.057,422.229,20.4,410.571,20.4,396z"/>
</svg>
