<?xml version="1.0" encoding="utf-8"?>
<!-- Generator: Adobe Illustrator 16.0.0, SVG Export Plug-In . SVG Version: 6.00 Build 0)  -->
<!DOCTYPE svg PUBLIC "-//W3C//DTD SVG 1.1//EN" "http://www.w3.org/Graphics/SVG/1.1/DTD/svg11.dtd">
<svg version="1.1" id="Layer_1" xmlns="http://www.w3.org/2000/svg" xmlns:xlink="http://www.w3.org/1999/xlink" x="0px" y="0px"
	 width="64px" height="64px" viewBox="0 0 64 64" enable-background="new 0 0 64 64" xml:space="preserve">
<title>close</title>
<desc>Created with Sketch.</desc>
<g id="Page-1">
	<g id="AEM-PPC-LP-1" transform="translate(-704.000000, -5928.000000)">
		<g id="close" transform="translate(704.000000, 5928.000000)">
			<path id="Path" fill="#FFFFFF" d="M63.119,0.756c-1.008-1.008-2.641-1.008-3.648,0L0.756,59.471
				c-1.008,1.008-1.008,2.641,0,3.648c0.504,0.504,1.164,0.756,1.825,0.756c0.66,0,1.32-0.252,1.824-0.756L63.119,4.405
				C64.127,3.397,64.127,1.764,63.119,0.756z"/>
			<path id="Path_1_" fill="#FFFFFF" d="M63.119,59.471L4.405,0.756c-1.008-1.008-2.642-1.008-3.649,0
				c-1.008,1.008-1.008,2.641,0,3.649l58.715,58.714c0.504,0.504,1.164,0.756,1.824,0.756s1.32-0.252,1.824-0.756
				C64.127,62.111,64.127,60.479,63.119,59.471z"/>
		</g>
	</g>
</g>
</svg>
