<svg id="Layer_1" data-name="Layer 1" xmlns="http://www.w3.org/2000/svg" viewBox="0 0 285.01 101.53"><defs><style>.cls-1,.cls-5{fill:#fff;}.cls-2{fill:#e2231a;}.cls-3{fill:#231f20;}.cls-4{isolation:isolate;}.cls-5{stroke:#231f20;stroke-miterlimit:10;stroke-width:0.5px;}</style></defs><title>hardline_logo</title><path class="cls-1" d="M270.11,93.73v0.83l-0.06,7h-3.56l0.13-13.12h2.54l8.64,7.31L278,95.87l0.2,0.17,0,0.07v-1l0.09-6.74h3.55l-0.14,13.14h-2.56l-9-7.65ZM236,101.51a4,4,0,0,1-2.82-.8,3.64,3.64,0,0,1-.79-2.69l0.08-6.4a3.55,3.55,0,0,1,.73-2.52,3.94,3.94,0,0,1,2.68-.71h9a4.08,4.08,0,0,1,2.84.79,3.75,3.75,0,0,1,.79,2.68l-0.07,6.42a3.5,3.5,0,0,1-.77,2.52,3.91,3.91,0,0,1-2.67.71h-9Zm0.34-10-0.1,6.67h8.24l0.09-6.67h-8.23Zm-84.87-3.16h3.86l-0.14,13.16h-3.89Zm31.86,13.16h-3.89l0.13-10H174l0-3.16h15v3.16h-5.61Zm25.51-13.14h3.87l-0.12,13.14h-3.88ZM26.16,96.08v-1l0.06-6.72h3.56l-0.13,13.15H27.11l-9-7.65L18,93.75v0.83l-0.07,6.93H14.34l0.15-13.12H17l8.63,7.28a5.27,5.27,0,0,1,.43.36Zm96,0.85h-2L120,101.51h-3.8l0.14-13.12h10.76a3.75,3.75,0,0,1,2.5.71,2.8,2.8,0,0,1,.86,2.27v2.84a2.55,2.55,0,0,1-.8,2.07,3.46,3.46,0,0,1-2.35.68h-0.49l5.55,4.56h-5.48l-2.41-2.27Zm-2-5.48v2.37h5.7a1.49,1.49,0,0,0,.76-0.12,0.55,0.55,0,0,0,.14-0.48V91.77a1,1,0,0,0,0-.26h-0.1a1.83,1.83,0,0,0-.49,0h-6ZM52.1,98.2h7l0.11-9.83h3.86L63,98.26a3.47,3.47,0,0,1-.76,2.52,3.93,3.93,0,0,1-2.67.71H51.86A4.09,4.09,0,0,1,49,100.7,3.65,3.65,0,0,1,48.24,98l0.11-9.63H52.2Zm39,3.29H87.23l0.12-10H81.79V88.33h15v3.16h-5.6Z" transform="translate(0 0)"/><path class="cls-1" d="M188.12,12.64l0.06,45.21h9V69.18H173.49l-0.13-56.54h14.76Z" transform="translate(0 0)"/><path class="cls-1" d="M215.86,12.64L216,69.18H201.24l-0.06-56.54h14.68Z" transform="translate(0 0)"/><path class="cls-1" d="M254.05,12.64l0.12,56.54H241.28l-7.71-25.67,0.06,25.71H221.35l-0.12-56.54H233.5l8.36,25.43L241.8,12.64h12.25Z" transform="translate(0 0)"/><path class="cls-1" d="M260,12.64h24.5V24H274.7l0.06,10.72h9.1l0.06,10.78h-9.21v12.4H285V69.19H260V12.64Z" transform="translate(0 0)"/><path class="cls-2" d="M0.66,79.51H167.59V0.66H0.66V79.51Z" transform="translate(0 0)"/><path class="cls-3" d="M168.25,80.14H0V0H168.25V80.14ZM1.33,78.81H166.92V1.33H1.33V78.81Z" transform="translate(0 0)"/><g class="cls-4"><path class="cls-5" d="M44.5,11.59v57.6H30V45H25.63V69.19H11.1V11.59H25.63v20.6H30V11.59H44.5Z" transform="translate(0 0)"/><path class="cls-5" d="M75.45,11.59l8.31,57.6H68.91L68.13,58.84h-5.2L62.06,69.19H47l7.41-57.6h21Zm-7.7,37q-1.1-9.79-2.21-24.19Q63.32,41,62.75,48.63h5Z" transform="translate(0 0)"/><path class="cls-5" d="M86.23,11.59H96.51q10.28,0,13.92.82a9.59,9.59,0,0,1,5.94,4.18q2.29,3.36,2.29,10.73,0,6.72-1.62,9t-6.38,2.77q4.31,1.1,5.8,3a8.9,8.9,0,0,1,1.85,3.4,55.29,55.29,0,0,1,.36,8.52V69.19H105.17V50q0-4.62-.71-5.73t-3.71-1.1v26H86.23V11.59Zm14.53,9.85V34.25a6.24,6.24,0,0,0,3.43-.69q1-.69,1-4.5V25.89q0-2.74-.95-3.59A5.28,5.28,0,0,0,100.75,21.45Z" transform="translate(0 0)"/><path class="cls-5" d="M124.29,11.59h10.87q10.52,0,14.23,1A10.85,10.85,0,0,1,155,15.86a10.5,10.5,0,0,1,2.42,5.07,79,79,0,0,1,.48,11V52.08q0,7.76-.71,10.37a7.84,7.84,0,0,1-2.47,4.09,10.13,10.13,0,0,1-4.35,2.06,38.2,38.2,0,0,1-7.8.59H124.29V11.59Zm14.53,9.85V59.34q3.14,0,3.87-1.3T143.41,51V28.6a31,31,0,0,0-.24-5,2.38,2.38,0,0,0-1.1-1.62A7,7,0,0,0,138.82,21.45Z" transform="translate(0 0)"/></g></svg>